# xmcd
#
# Track frame offsets:
#	150
#	18415
#	40175
#
# Disc length: 872 seconds
#
# Revision: 0
# Processed by: cddbd v1.5.2PL0 Copyright (c) Steve Scherf et al.
# Submitted via: audiograbber 1.83.01
#
DISCID=1a036603
DTITLE=Mick Jagger - Visions of paradise (single)
DYEAR=2002
DGENRE=Rock
TTITLE0=Visions of paradise
TTITLE1=If things could be different
TTITLE2=Blue
EXTD=
EXTT0=
EXTT1=
EXTT2=
PLAYORDER=
